<?xml version="1.0" encoding="UTF-8"?>
<svg version="1.1" xmlns="http://www.w3.org/2000/svg" width="500" height="500">
<path d="M0 0 C1.32944667 -0.00668677 1.32944667 -0.00668677 2.68575084 -0.01350862 C4.1553709 -0.01323207 4.1553709 -0.01323207 5.65468025 -0.01294994 C7.20884358 -0.01846498 7.20884358 -0.01846498 8.79440415 -0.02409142 C12.28902299 -0.0351623 15.78361214 -0.03897783 19.27824593 -0.04278088 C21.77448306 -0.04904285 24.27071926 -0.05568941 26.76695442 -0.0626936 C34.27380392 -0.08194493 41.78064554 -0.09252452 49.28751248 -0.10142139 C52.82050775 -0.10580253 56.35350151 -0.11116974 59.88649559 -0.11641026 C71.626908 -0.13342223 83.36731947 -0.14791765 95.10774231 -0.155159 C98.15513676 -0.15706896 101.2025312 -0.15898928 104.24992561 -0.16094494 C105.00736152 -0.16142868 105.76479743 -0.16191242 106.54518594 -0.16241082 C118.82233687 -0.17071578 131.0993905 -0.19606066 143.37649892 -0.22852562 C155.97396177 -0.26156687 168.57137512 -0.27960504 181.16888154 -0.28280324 C188.24488617 -0.28497092 195.32074887 -0.29375722 202.39671135 -0.31926441 C209.05001247 -0.34319234 215.70310353 -0.34681559 222.35645485 -0.33650303 C224.80264701 -0.33600534 227.24885138 -0.34239385 229.69500542 -0.35605907 C233.02627625 -0.3736324 236.35661356 -0.36674333 239.68788338 -0.35352612 C240.66316864 -0.36449536 241.6384539 -0.37546461 242.64329326 -0.38676625 C249.1748909 -0.32389906 249.1748909 -0.32389906 252.31834793 1.98623848 C254.18455514 4.69488984 255.83503055 7.43924369 257.42326546 10.32172108 C258.12655419 11.58277328 258.83103431 12.84316159 259.53654671 14.10297108 C259.90473518 14.76297108 260.27292366 15.42297108 260.65226936 16.10297108 C262.59007487 19.53768387 264.60233984 22.92798359 266.61076546 26.32172108 C270.179516 32.36871328 273.72037161 38.43105209 277.23576546 44.50922108 C277.69169075 45.29740223 278.14761604 46.08558338 278.61735725 46.89764881 C280.95509871 50.94109854 283.28968988 54.98635303 285.62248421 59.03265858 C294.83562913 75.0970117 294.83562913 75.0970117 304.54826546 90.86078358 C305.79826546 93.13422108 305.79826546 93.13422108 305.79826546 96.13422108 C306.45826546 96.13422108 307.11826546 96.13422108 307.79826546 96.13422108 C308.40412483 97.23636951 309.00998421 98.33851795 309.63420296 99.47406483 C316.81566471 112.49534887 324.20261783 125.3756402 332.04826546 138.00922108 C334.94657065 142.68708565 337.64632768 147.42886909 340.25139046 152.27484608 C345.25302901 161.52029917 350.60694929 170.49181895 356.2203846 179.37421131 C359.13069696 184.00243594 361.85976336 188.68061239 364.34904671 193.55218983 C365.74445704 196.19656158 365.74445704 196.19656158 367.71623421 198.56000233 C375.18656717 208.62482219 374.37887464 222.11902115 372.79826546 234.13422108 C372.01740795 236.46179771 371.15884984 238.07515486 369.79826546 240.13422108 C369.13826546 240.13422108 368.47826546 240.13422108 367.79826546 240.13422108 C367.63390999 240.98306873 367.63390999 240.98306873 367.46623421 241.84906483 C366.7010605 244.46676435 365.5601576 246.38758452 364.11076546 248.69672108 C361.95256151 252.14635703 359.95715544 255.65452832 358.02092171 259.23187733 C354.76990253 265.22627476 351.36717082 271.12398841 347.92326546 277.00922108 C347.30902718 278.06133778 346.69478889 279.11345448 346.06193733 280.1974535 C342.28148998 286.65505238 338.41893009 293.0473542 334.45842171 299.39593983 C332.26646165 303.01138453 330.28771801 306.72711467 328.29435921 310.45453358 C326.72999401 313.25650362 325.04192168 315.94052022 323.29826546 318.63422108 C319.83685036 323.98990509 316.79558104 329.50933751 313.79826546 335.13422108 C312.67524655 337.19780044 311.55029912 339.26033165 310.42326546 341.32172108 C309.92053108 342.24340076 309.41779671 343.16508045 308.89982796 344.11468983 C308.53631233 344.78113514 308.17279671 345.44758045 307.79826546 346.13422108 C307.13826546 346.13422108 306.47826546 346.13422108 305.79826546 346.13422108 C305.67314583 346.71655506 305.5480262 347.29888905 305.41911507 347.89886951 C304.79793761 350.13540149 303.98773052 351.87446314 302.86467171 353.89984608 C302.46796272 354.61712879 302.07125374 355.33441151 301.66252327 356.07343006 C301.01815315 357.21727161 301.01815315 357.21727161 300.36076546 358.38422108 C299.91700569 359.17836414 299.47324593 359.97250721 299.01603889 360.79071522 C295.64346917 366.76995573 292.0957501 372.62251043 288.37468147 378.39105701 C285.4860824 382.89895745 282.91617937 387.53813318 280.37394905 392.24921131 C277.75835164 397.03825913 274.99554305 401.73974308 272.23576546 406.44672108 C271.33918221 407.97921497 271.33918221 407.97921497 270.42448616 409.54266834 C268.55151715 412.74128948 266.675401 415.93804354 264.79826546 419.13422108 C264.17242561 420.20059803 263.54658577 421.26697498 262.90178108 422.36566639 C261.09875063 425.43571668 259.2929639 428.50412276 257.48576546 431.57172108 C256.65033211 432.99254993 256.65033211 432.99254993 255.79802132 434.44208241 C255.28634407 435.3085741 254.77466682 436.1750658 254.24748421 437.06781483 C253.79719856 437.83150379 253.34691292 438.59519276 252.88298225 439.38202381 C251.79826546 441.13422108 251.79826546 441.13422108 250.79826546 442.13422108 C249.43722337 442.24486996 248.07055746 442.28729057 246.70510387 442.3019619 C245.37374388 442.31974924 245.37374388 442.31974924 244.01548773 442.33789593 C243.02913901 442.345897 242.04279028 442.35389808 241.0265522 442.36214161 C239.98736403 442.37428509 238.94817586 442.38642856 237.87749714 442.39894003 C234.36617652 442.4383116 230.85483061 442.47011227 227.34343147 442.50165272 C224.83737147 442.5275426 222.33131377 442.55365554 219.82525826 442.57997608 C196.91727686 442.81111458 174.00836449 442.94153877 151.09949017 443.04534721 C148.03203965 443.05949498 144.96459054 443.0739112 141.89714241 443.08856678 C140.75352925 443.09401398 140.75352925 443.09401398 139.58681279 443.09957122 C127.24836974 443.16005363 114.91120776 443.27997337 102.57347346 443.42280132 C89.90600296 443.56822661 77.23919829 443.65277893 64.57091659 443.68030733 C57.45790581 443.69744123 50.34732786 443.74206719 43.23515701 443.85646725 C36.53886418 443.96417751 29.84714513 443.99054921 23.14981842 443.96223736 C20.6946751 443.96503914 18.23938457 443.99519198 15.78496742 444.05496693 C-2.2949868 444.47293144 -2.2949868 444.47293144 -7.15721822 440.56087852 C-10.42726025 436.78955679 -12.54290831 432.63216424 -14.41000378 428.03014076 C-15.46956519 425.49285988 -16.85450673 423.20450662 -18.30329704 420.87250233 C-19.14700413 419.39870521 -19.98822197 417.92347979 -20.82673454 416.44672108 C-23.97365623 410.95366931 -27.16752306 405.50808351 -30.51423454 400.13422108 C-33.29587155 395.65673696 -35.883784 391.12635959 -38.37360954 386.48187733 C-40.92412844 381.81137584 -43.56209442 377.19230214 -46.20173454 372.57172108 C-46.70027946 371.69709217 -47.19882439 370.82246326 -47.71247673 369.92133045 C-50.67275491 364.74618184 -53.69510395 359.61351446 -56.77302361 354.50751209 C-58.89678917 350.97963699 -60.98907177 347.43354548 -63.07673454 343.88422108 C-63.50381706 343.15896229 -63.93089958 342.4337035 -64.370924 341.68646717 C-67.08500925 337.06681211 -69.75117819 332.42260296 -72.38923454 327.75922108 C-75.22449602 322.76756355 -78.19644895 317.90870059 -81.36579704 313.12250233 C-83.57561745 309.52566698 -85.56011457 305.82790511 -87.56892204 302.11591053 C-90.25246061 297.21548342 -93.0686445 292.39418613 -95.88923454 287.57172108 C-96.49573845 286.532495 -97.10224236 285.49326893 -97.72712517 284.42255116 C-101.92070854 277.2603464 -106.21393525 270.16603771 -110.57063103 263.10223866 C-113.47982014 258.36806076 -116.25700588 253.59627803 -118.78767204 248.64593983 C-120.15571148 246.06301389 -120.15571148 246.06301389 -122.11579704 243.71625233 C-129.69086552 233.50047273 -128.89343876 220.2806991 -127.20173454 208.13422108 C-125.64655231 203.3572281 -123.22774979 200.09660817 -120.20173454 196.13422108 C-118.43846679 193.26055942 -116.79632908 190.32004924 -115.13923454 187.38422108 C-114.19599426 185.75021063 -113.25060638 184.11743838 -112.30329704 182.48578358 C-111.80604118 181.62759022 -111.30878532 180.76939686 -110.79646111 179.88519764 C-95.62376531 153.71160054 -95.62376531 153.71160054 -88.86189079 142.87250233 C-86.66993074 139.25705763 -84.6911871 135.54132748 -82.69782829 131.81390858 C-81.1334631 129.01193854 -79.44539076 126.32792193 -77.70173454 123.63422108 C-74.94635504 119.36667018 -72.46416105 115.03105165 -70.06501579 110.55609608 C-67.49839279 105.84254943 -64.85454245 101.17468603 -62.20173454 96.50922108 C-61.70327019 95.6263744 -61.20480583 94.74352772 -60.6912365 93.83392811 C-57.81192804 88.78133405 -54.76758936 83.90878403 -51.50544548 79.09515858 C-49.9667169 76.78072637 -48.61889756 74.40664633 -47.32673454 71.94672108 C-40.94202495 60.0405407 -34.03276923 48.44675601 -27.13252068 36.83493519 C-23.23389441 30.27366587 -19.34137791 23.71109593 -15.57673454 17.07172108 C-13.3460916 13.14342067 -11.11244709 9.21831675 -8.82673454 5.32172108 C-8.13450798 4.13642811 -8.13450798 4.13642811 -7.42829704 2.92718983 C-5.36387856 -0.09054292 -3.436496 0.00799623 0 0 Z M5.58217049 31.5131731 C4.52539083 33.85113908 4.52539083 33.85113908 3.79826546 36.13422108 C3.17967659 37.15765614 2.56108772 38.18109119 1.92375374 39.23553944 C0.2524889 42.17848728 -1.41705353 45.1222201 -3.07673454 48.07172108 C-3.66970329 49.11134998 -4.26267204 50.15097889 -4.87360954 51.2221117 C-5.43306267 52.21275623 -5.99251579 53.20340076 -6.56892204 54.22406483 C-7.32858269 55.56779163 -7.32858269 55.56779163 -8.10359001 56.93866444 C-9.35084552 59.02319846 -9.35084552 59.02319846 -9.20173454 61.13422108 C-9.86173454 61.13422108 -10.52173454 61.13422108 -11.20173454 61.13422108 C-11.54204704 61.7658617 -11.88235954 62.39750233 -12.23298454 63.04828358 C-18.26975941 74.19062868 -24.50917087 85.16944066 -31.24470329 95.90375233 C-33.21400955 99.15448342 -35.06173832 102.45269821 -36.89631462 105.78046131 C-39.03369658 109.63430448 -41.24189392 113.44659955 -43.45173454 117.25922108 C-43.92699577 118.08035389 -44.402257 118.9014867 -44.89192009 119.74750233 C-48.53471391 126.02461574 -52.2558768 132.25010625 -56.03376579 138.44672108 C-57.76343693 141.33479956 -59.37330129 144.27684212 -60.97126579 147.23968983 C-64.17558767 153.15186802 -67.58621807 158.93038215 -71.03492546 164.70264149 C-76.21817026 173.37984696 -81.36047588 182.07550012 -86.33845329 190.87250233 C-88.21656864 194.16018852 -90.12945829 197.42506102 -92.05476189 200.68524647 C-93.34750924 202.87601097 -94.63220309 205.07135396 -95.91657829 207.26703358 C-97.24916456 209.5397208 -98.60765013 211.77495666 -100.01814079 214.00140858 C-102.74857307 218.27707478 -102.74857307 218.27707478 -102.76423454 223.19672108 C-102.24860954 224.16609608 -101.73298454 225.13547108 -101.20173454 226.13422108 C-100.49266458 227.59219639 -99.78435912 229.0505437 -99.07673454 230.50922108 C-98.45568424 231.71958919 -97.83205587 232.92865504 -97.20173454 234.13422108 C-96.54173454 234.13422108 -95.88173454 234.13422108 -95.20173454 234.13422108 C-94.99548454 234.91797108 -94.78923454 235.70172108 -94.57673454 236.50922108 C-93.1145769 240.36400033 -91.25704473 243.54603504 -89.10017204 247.04437733 C-86.79459534 250.79686946 -84.55768797 254.58703348 -82.32673454 258.38422108 C-81.89135368 259.12446522 -81.45597282 259.86470936 -81.00739861 260.62738514 C-78.45944246 264.96743534 -75.94064131 269.32244073 -73.45173454 273.69672108 C-65.31993448 287.98498515 -56.9701747 302.14969131 -48.61726189 316.30951405 C-45.41946686 321.74030952 -42.28922718 327.20743652 -39.18610954 332.69281483 C-37.10156743 336.30793609 -34.95973406 339.88447147 -32.80769157 343.45966053 C-30.10380096 347.96271947 -27.43480439 352.48634747 -24.76423454 357.00922108 C-24.19148796 357.97883778 -23.61874138 358.94845448 -23.02863884 359.9474535 C-19.65100525 365.66902557 -16.28630468 371.39752308 -12.94782829 377.14203358 C-11.55051121 379.53654115 -10.14619951 381.9264617 -8.73689079 384.31390858 C-7.85013848 385.81649294 -6.96342011 387.31909733 -6.07673454 388.82172108 C-5.64240105 389.55753407 -5.20806755 390.29334705 -4.76057243 391.05145741 C-2.60231029 394.71772274 -0.48185636 398.39486766 1.54826546 402.13422108 C1.90721397 402.74375692 2.26616249 403.35329277 2.63598824 403.9812994 C3.79826546 406.13422108 3.79826546 406.13422108 4.5805378 408.45265484 C5.93165812 411.56161577 7.0735174 413.07059124 9.79826546 415.13422108 C16.62398561 417.00240858 24.12383119 416.36297881 31.13029671 416.29877186 C33.34804296 416.31096884 35.56577097 416.32699444 37.78346443 416.34656239 C43.80443543 416.38760637 49.8240192 416.37168 55.84501457 416.34315062 C62.14432973 416.32037215 68.44352573 416.3414944 74.74284554 416.35562611 C85.99946476 416.37305145 97.25551181 416.34507422 108.51199639 416.29929207 C118.71417748 416.25908229 128.91543693 416.26606689 139.11760139 416.30756092 C150.9706136 416.35574682 162.82317952 416.3736415 174.67630863 416.34705055 C180.94876358 416.3330154 187.22058389 416.33115825 193.49299812 416.36087894 C199.39019298 416.38686963 205.28564679 416.36886322 211.18265343 416.31683064 C213.34738586 416.30492521 215.51226473 416.30835764 217.67693901 416.32819462 C228.60704867 416.94906539 228.60704867 416.94906539 238.36729622 413.17436314 C239.95878652 410.8419556 240.90045227 408.79830988 241.79826546 406.13422108 C242.45744455 404.96954673 243.14073439 403.81801959 243.85295296 402.68500233 C244.45365608 401.61636951 245.05435921 400.5477367 245.67326546 399.44672108 C246.35550332 398.23965942 247.03779665 397.0326291 247.72014046 395.82562733 C248.06238655 395.21735096 248.40463264 394.60907459 248.75724983 393.98236561 C250.46885041 390.94371262 252.1955775 387.91374661 253.92326546 384.88422108 C254.52396858 383.82718983 255.12467171 382.77015858 255.74357796 381.68109608 C257.30144116 378.9691296 258.9032666 376.28594187 260.51701546 373.60687733 C262.98161289 369.51207952 265.41069515 365.39745495 267.82170296 361.27093983 C268.17507729 360.66639973 268.52845161 360.06185963 268.89253426 359.43900013 C270.34976993 356.94518384 271.80638103 354.4510069 273.26115608 351.95575428 C277.76969312 344.22523796 282.34936628 336.55116179 287.08293343 328.95599842 C288.65765157 326.36553553 290.12665368 323.74853804 291.54826546 321.07172108 C294.44835184 315.64601001 297.61639503 310.39740001 300.79826546 305.13422108 C304.41581099 299.14735309 307.94777441 293.15149953 311.23967171 286.97797108 C313.37099659 283.08923795 315.61229136 279.26863342 317.86076546 275.44672108 C318.27278206 274.74522938 318.68479866 274.04373768 319.10930061 273.32098866 C321.59869011 269.10431834 324.17179069 264.96650576 326.87809944 260.8849535 C328.0308868 259.02126606 328.0308868 259.02126606 327.79826546 256.13422108 C328.45826546 256.13422108 329.11826546 256.13422108 329.79826546 256.13422108 C330.17338264 255.43297108 330.54849983 254.73172108 330.93498421 254.00922108 C333.74646554 248.7970038 336.60520762 243.7037912 339.91545296 238.79047108 C341.03345154 237.00579339 341.03345154 237.00579339 340.79826546 234.13422108 C341.45826546 234.13422108 342.11826546 234.13422108 342.79826546 234.13422108 C343.83668656 232.4155589 344.8534118 230.6837751 345.86076546 228.94672108 C346.42924202 227.98379139 346.99771858 227.0208617 347.58342171 226.02875233 C349.01055562 222.62841074 349.02925208 221.56857032 347.79826546 218.13422108 C346.54638828 215.63331838 345.26041479 213.23634498 343.86076546 210.82172108 C343.46397591 210.12603016 343.06718636 209.43033924 342.65837288 208.71356678 C339.3585481 202.98025811 335.86223919 197.37818642 332.3243885 191.78973866 C329.45867082 187.24660968 326.8053659 182.63389137 324.27873421 177.89203358 C319.51522185 169.01857783 314.36431452 160.36285402 309.15666389 151.74506092 C306.61887164 147.53468245 304.15612161 143.2880437 301.73576546 139.00922108 C298.57587353 133.4370061 295.26960053 127.97824816 291.85295296 122.56000233 C289.59628602 118.79746068 287.51551097 114.96015619 285.42668343 111.10272694 C282.68340637 106.10190148 279.80374572 101.18190678 276.92326546 96.25922108 C276.00299568 94.68213367 276.00299568 94.68213367 275.0641346 93.07318592 C271.85560078 87.590404 268.60257872 82.1461223 265.23576546 76.75922108 C262.08000691 71.70322082 259.33069939 66.52781835 256.79826546 61.13422108 C256.13826546 61.13422108 255.47826546 61.13422108 254.79826546 61.13422108 C254.59201546 60.35047108 254.38576546 59.56672108 254.17326546 58.75922108 C252.60403507 54.62215913 250.48552201 51.14009887 248.13810921 47.40375233 C246.79826546 45.13422108 246.79826546 45.13422108 245.79826546 42.13422108 C245.13826546 42.13422108 244.47826546 42.13422108 243.79826546 42.13422108 C243.59201546 41.32984608 243.38576546 40.52547108 243.17326546 39.69672108 C242.71951546 38.52109608 242.26576546 37.34547108 241.79826546 36.13422108 C241.45333801 35.00774505 241.45333801 35.00774505 241.10144234 33.85851192 C239.7131197 30.73679484 238.54874128 29.20893819 235.79826546 27.13422108 C228.97408348 25.26335016 221.47178345 25.90547175 214.46623421 25.9696703 C212.24848796 25.95747331 210.03075994 25.94144772 207.81306648 25.92187977 C201.79209548 25.88083578 195.77251171 25.89676215 189.75151634 25.92529154 C183.45220118 25.94807 177.15300518 25.92694775 170.85368538 25.91281605 C159.59706615 25.8953907 148.3410191 25.92336794 137.08453453 25.96915008 C126.88235344 26.00935986 116.68109398 26.00237527 106.47892952 25.96088123 C94.62591731 25.91269534 82.77335139 25.89480065 70.92022228 25.92139161 C64.64776733 25.93542675 58.37594702 25.9372839 52.10353279 25.90756321 C46.20633793 25.88157252 40.31088412 25.89957893 34.41387749 25.95161152 C32.24914505 25.96351694 30.08426619 25.96008452 27.9195919 25.94024754 C15.28473996 25.05778466 15.28473996 25.05778466 5.58217049 31.5131731 Z " fill="#070707" transform="translate(127.20173454284668,28.865778923034668)"/>
<path d="M0 0 C34.06009824 26.87875223 43.4395422 81.84942255 48.27441406 122.02587891 C48.73269583 126.01443237 49.15218729 130.00622397 49.5625 134 C49.69027832 135.23298828 49.81805664 136.46597656 49.94970703 137.73632812 C50.67467235 145.24497033 50.96838398 152.64531327 50.8125 160.1875 C48.16698944 160.38136492 45.52132217 160.56788267 42.875 160.75 C42.12025391 160.80607422 41.36550781 160.86214844 40.58789062 160.91992188 C38.66504042 161.04926157 36.73860452 161.12266912 34.8125 161.1875 C32.76359557 159.13859557 33.27464786 154.99544912 33.05078125 152.16796875 C32.9035263 150.44117019 32.75537419 148.71444796 32.60644531 146.98779297 C32.52833618 146.07205505 32.45022705 145.15631714 32.36975098 144.21282959 C30.56806368 123.32269225 27.61989942 102.80010427 23.8125 82.1875 C23.00505341 82.3425853 22.19760681 82.49767059 21.36569214 82.65745544 C17.22236525 83.27553287 13.14307297 83.4938185 8.96142578 83.66821289 C8.09248184 83.7073732 7.2235379 83.74653351 6.32826233 83.78688049 C3.47158736 83.91476378 0.61471584 84.03749019 -2.2421875 84.16015625 C-4.2290282 84.24808956 -6.21585462 84.33634587 -8.20266724 84.4249115 C-13.42047558 84.65663727 -18.63846582 84.88398383 -23.85650635 85.1104126 C-29.18570459 85.34244329 -34.51471874 85.57862388 -39.84375 85.81445312 C-50.29149087 86.27619239 -60.73942865 86.73330455 -71.1875 87.1875 C-71.98588559 89.07086598 -72.78087102 90.95567353 -73.57446289 92.84106445 C-74.01754288 93.89050735 -74.46062286 94.93995026 -74.91712952 96.02119446 C-76.80279666 100.72108193 -78.24430173 105.50691978 -79.625 110.375 C-79.91793945 111.39239258 -80.21087891 112.40978516 -80.51269531 113.45800781 C-83.49324551 123.975138 -86.01672683 134.59466649 -88.49023438 145.24023438 C-89.6719601 150.2352599 -90.92865528 155.21143842 -92.1875 160.1875 C-100.68359375 160.28515625 -100.68359375 160.28515625 -103.1875 160.1875 C-104.88481979 158.49018021 -104.38241345 156.39566322 -104.41015625 154.0703125 C-104.3404282 146.57288684 -103.06796947 139.39890936 -101.625 132.0625 C-101.42534134 131.02435654 -101.42534134 131.02435654 -101.22164917 129.96524048 C-97.27687429 109.51966454 -92.05791889 89.49251868 -84.1875 70.1875 C-83.64053467 68.83277588 -83.64053467 68.83277588 -83.08251953 67.45068359 C-77.47988245 53.70427165 -71.05320448 40.77739606 -63.1875 28.1875 C-62.78160645 27.53523438 -62.37571289 26.88296875 -61.95751953 26.2109375 C-57.4394248 19.01510482 -57.4394248 19.01510482 -55.1875 16.1875 C-54.5275 16.1875 -53.8675 16.1875 -53.1875 16.1875 C-52.9709375 15.48496094 -52.754375 14.78242188 -52.53125 14.05859375 C-50.85285973 10.47249826 -48.47752447 7.9856253 -45.6875 5.25 C-44.88662964 4.45940186 -44.88662964 4.45940186 -44.06958008 3.65283203 C-29.69804662 -10.14879211 -16.17921564 -11.45375807 0 0 Z M-30.1875 12.1875 C-42.52610462 24.58658798 -65.1875 54.05568631 -65.1875 72.1875 C-59.70457102 72.30120129 -54.29920322 72.15500062 -48.83203125 71.7109375 C-41.60337957 71.17560453 -34.38243903 70.96008951 -27.13812256 70.79879761 C-11.43512198 70.44041363 4.1609384 69.54139358 19.8125 68.1875 C16.09368944 52.96973575 10.07758814 36.95829717 0.8125 24.1875 C0.1525 24.1875 -0.5075 24.1875 -1.1875 24.1875 C-1.373125 23.5275 -1.55875 22.8675 -1.75 22.1875 C-5.14305941 15.10633254 -11.01833765 9.42920819 -18.1875 6.1875 C-23.19289547 6.1875 -26.40568837 9.09275663 -30.1875 12.1875 Z " fill="#0F0F0F" transform="translate(232.1875,173.8125)"/>
<path d="M0 0 C0.69802734 -0.00386719 1.39605469 -0.00773438 2.11523438 -0.01171875 C7.31086006 -0.00163994 7.31086006 -0.00163994 8.4375 1.125 C8.59226786 3.49604076 8.68389813 5.84104046 8.73461914 8.21508789 C8.76409889 9.32721397 8.76409889 9.32721397 8.79417419 10.46180725 C8.85827907 12.92366334 8.91548 15.38563029 8.97265625 17.84765625 C9.01564432 19.55017655 9.05906076 21.25268608 9.10289001 22.95518494 C9.21731349 27.44481704 9.32589316 31.93457246 9.43328857 36.42437744 C9.5438182 41.00240736 9.65982962 45.58029793 9.77539062 50.15820312 C10.00148294 59.14700701 10.22140677 68.13595057 10.4375 77.125 C10.7675 76.465 11.0975 75.805 11.4375 75.125 C12.0975 75.125 12.7575 75.125 13.4375 75.125 C13.71658203 74.5374292 13.99566406 73.9498584 14.28320312 73.34448242 C15.36029598 71.27344791 16.52594014 69.49096968 17.90625 67.61328125 C18.39013184 66.94643311 18.87401367 66.27958496 19.37255859 65.5925293 C19.88898926 64.88136963 20.40541992 64.17020996 20.9375 63.4375 C34.58077339 44.36619112 45.65103778 23.96629823 51.4375 1.125 C57.0475 1.125 62.6575 1.125 68.4375 1.125 C72.10513202 12.12789607 61.46616598 29.32453963 56.5 39.375 C53.20988651 45.90130351 49.48809357 52.03998669 45.4375 58.125 C44.1628047 60.1225408 42.89192664 62.12252297 41.625 64.125 C39.91952114 66.81005596 38.20205023 69.47817465 36.4375 72.125 C35.7775 72.125 35.1175 72.125 34.4375 72.125 C34.14875 72.888125 33.86 73.65125 33.5625 74.4375 C32.4375 77.125 32.4375 77.125 30.4375 80.125 C29.7775 80.125 29.1175 80.125 28.4375 80.125 C28.210625 80.640625 27.98375 81.15625 27.75 81.6875 C25.95532382 85.02047005 23.93784985 88.27203671 21.4375 91.125 C20.7775 91.125 20.1175 91.125 19.4375 91.125 C19.4375 91.785 19.4375 92.445 19.4375 93.125 C18.7775 93.125 18.1175 93.125 17.4375 93.125 C17.14875 93.74375 16.86 94.3625 16.5625 95 C15.4375 97.125 15.4375 97.125 13.4375 99.125 C14.24832031 99.59808594 15.05914062 100.07117188 15.89453125 100.55859375 C25.70446251 106.41714408 34.38233114 112.9648778 42.4375 121.125 C43.31535156 121.95064453 43.31535156 121.95064453 44.2109375 122.79296875 C55.07644592 133.10195113 64.78461687 149.17489817 67.4375 164.125 C67.47510209 165.79124244 67.48418337 167.45898726 67.4375 169.125 C62.08847076 169.71698743 56.82865154 170.26687241 51.4375 170.125 C49.37492139 166.15394348 47.68686994 162.21301836 46.1875 158 C43.48524602 150.85949859 40.2072185 142.8947185 34.7265625 137.4140625 C34.08847656 136.77597656 34.08847656 136.77597656 33.4375 136.125 C33.4375 135.465 33.4375 134.805 33.4375 134.125 C32.7775 134.125 32.1175 134.125 31.4375 134.125 C30.0625 132.65625 30.0625 132.65625 28.4375 130.625 C23.02927857 124.25506556 16.60298768 119.36633098 9.4375 115.125 C9.41244385 116.33446289 9.3873877 117.54392578 9.36157227 118.79003906 C9.26652321 123.3301634 9.16655147 127.87016892 9.06518555 132.41015625 C9.0222015 134.36520585 8.9805055 136.32028426 8.94018555 138.27539062 C8.72643263 148.59886489 8.46716181 158.84568715 7.4375 169.125 C1.4975 169.125 -4.4425 169.125 -10.5625 169.125 C-10.4910376 167.08626709 -10.4195752 165.04753418 -10.34594727 162.94702148 C-9.64029966 141.33191391 -9.46286696 119.72282279 -9.46484375 98.09765625 C-9.46490811 97.39360012 -9.46497247 96.68954398 -9.46503878 95.96415281 C-9.4666823 87.26331484 -9.4770153 78.56249572 -9.49047339 69.86166894 C-9.50188786 62.34466394 -9.50720814 54.82765776 -9.51217639 47.31064618 C-9.52248005 31.91542072 -9.53993423 16.52021269 -9.5625 1.125 C-6.51267742 -0.39991129 -3.34127461 -0.01861434 0 0 Z " fill="#0F0F0F" transform="translate(305.5625,164.875)"/>
<path d="M0 0 C0.88753118 -0.00260775 1.77506235 -0.00521549 2.68948841 -0.00790226 C3.67059936 -0.00567154 4.6517103 -0.00344082 5.66255188 -0.0011425 C6.7000719 -0.00270249 7.73759192 -0.00426248 8.80655193 -0.00586975 C12.30584799 -0.0098792 15.80510116 -0.0066903 19.30439758 -0.00355339 C21.80387904 -0.00490745 24.30336031 -0.00668742 26.80284119 -0.00886345 C32.90065949 -0.01296151 38.99846078 -0.0123457 45.09627843 -0.00945081 C50.05044865 -0.00719588 55.00461542 -0.00688465 59.95878601 -0.00797462 C61.014926 -0.00820447 61.014926 -0.00820447 62.09240216 -0.00843897 C63.52258563 -0.00875868 64.9527691 -0.00908289 66.38295257 -0.00941156 C79.80565515 -0.01226568 93.2283509 -0.00898039 106.65105236 -0.00361119 C118.17775679 0.00085679 129.70445115 0.00008083 141.2311554 -0.00452995 C154.60459592 -0.00987692 167.97803046 -0.01199099 181.3514719 -0.00891769 C182.77650515 -0.00859913 184.2015384 -0.00828476 185.62657166 -0.00797462 C186.67839057 -0.00774321 186.67839057 -0.00774321 187.75145835 -0.00750712 C192.7018353 -0.00664233 197.65220847 -0.00810403 202.60258484 -0.01045418 C209.26075674 -0.01354549 215.91891251 -0.01135649 222.57708359 -0.00555992 C225.02733198 -0.00423253 227.47758197 -0.00462609 229.92782974 -0.00682259 C233.25951046 -0.00953488 236.59112908 -0.00615193 239.92280579 -0.0011425 C241.3944722 -0.00448858 241.3944722 -0.00448858 242.89586926 -0.00790226 C244.22716602 -0.00399064 244.22716602 -0.00399064 245.58535767 0 C246.35510579 0.00016235 247.12485392 0.0003247 247.91792774 0.00049198 C249.79267883 0.12584114 249.79267883 0.12584114 251.79267883 1.12584114 C251.79267883 1.78584114 251.79267883 2.44584114 251.79267883 3.12584114 C166.65267883 3.12584114 81.51267883 3.12584114 -6.20732117 3.12584114 C-6.20732117 2.46584114 -6.20732117 1.80584114 -6.20732117 1.12584114 C-3.89151129 -0.0320638 -2.57731394 0.0005436 0 0 Z " fill="#0E0E0E" transform="translate(127.20732116699219,28.87415885925293)"/>
<path d="M0 0 C0 3 0 3 -2 6 C-3.88987648 6.37259549 -3.88987648 6.37259549 -6.24414253 6.36914349 C-7.58773958 6.3781032 -7.58773958 6.3781032 -8.95848 6.38724393 C-10.44386562 6.37413614 -10.44386562 6.37413614 -11.95925903 6.36076355 C-13.00635729 6.36332682 -14.05345554 6.3658901 -15.13228405 6.36853105 C-18.66402638 6.37349832 -22.1953474 6.35692736 -25.72705078 6.34057617 C-28.2494811 6.33973054 -30.77191216 6.3402038 -33.29434204 6.34190369 C-38.73682198 6.34258829 -44.17916464 6.33404317 -49.62161636 6.31719017 C-57.49051758 6.29283929 -65.35936658 6.28499892 -73.22830139 6.2812262 C-85.9941901 6.27465555 -98.76002139 6.2546778 -111.52587891 6.22631836 C-123.92887077 6.19879363 -136.33184705 6.1775523 -148.73486328 6.16479492 C-149.88108141 6.16361267 -149.88108141 6.16361267 -151.05045547 6.16240653 C-154.88383634 6.1584915 -158.71721732 6.15470035 -162.55059838 6.15097082 C-194.3671077 6.11985582 -226.18354494 6.06678084 -258 6 C-258.33 5.01 -258.66 4.02 -259 3 C-174.19 3 -89.38 3 -2 3 C-2 2.34 -2 1.68 -2 1 C-1.34 0.67 -0.68 0.34 0 0 Z " fill="#8A8A89" transform="translate(380,465)"/>
<path d="M0 0 C0.62350724 0.7307693 0.62350724 0.7307693 1.25961059 1.47630161 C4.22935716 4.07629334 8.0476415 3.41254509 11.81324768 3.38526917 C13.18092416 3.39312271 13.18092416 3.39312271 14.57623047 3.40113491 C17.64413365 3.41515014 20.71161946 3.40778135 23.77954102 3.40063477 C25.9737587 3.40637422 28.16797323 3.41345572 30.36218262 3.42178345 C35.09306832 3.43692211 39.82384099 3.44266864 44.55475044 3.44125557 C52.0285028 3.43922743 59.50210234 3.45875061 66.97581482 3.48143005 C77.44798165 3.5110358 87.9201337 3.5316285 98.39233398 3.54370117 C99.38936294 3.54485541 99.38936294 3.54485541 100.40653389 3.54603296 C103.09997127 3.54913544 105.79340866 3.55221826 108.48684609 3.555273 C115.90391278 3.56380562 123.32097522 3.57470561 130.73803711 3.58666992 C131.73430866 3.58827195 131.73430866 3.58827195 132.75070692 3.58990634 C143.81365155 3.60798066 154.87656856 3.63401047 165.93948501 3.66480106 C173.37606605 3.68478138 180.8125674 3.69430657 188.24917424 3.69575322 C192.86651805 3.69849444 197.48381754 3.70930423 202.10114288 3.72226334 C204.24984008 3.72656007 206.39854727 3.72739162 208.54724693 3.72458839 C211.46951343 3.72121201 214.39149735 3.72991378 217.31373596 3.74171448 C218.6034501 3.73574284 218.6034501 3.73574284 219.91921908 3.72965056 C225.77184284 3.77184284 225.77184284 3.77184284 228 6 C201.92935003 6.15452868 175.85866994 6.30253931 149.78794003 6.4429636 C137.68062869 6.50832605 125.5733357 6.57575581 113.46606445 6.64819336 C102.90330554 6.71138472 92.34053273 6.77055359 81.77772528 6.82505554 C76.1939831 6.85400266 70.61026719 6.88485291 65.02656364 6.92053413 C59.75138373 6.9541799 54.47620052 6.98237356 49.2009697 7.00670624 C47.28361368 7.01645307 45.36626583 7.02805012 43.44893456 7.04183006 C33.05663594 7.11533087 22.6835666 7.00286633 12.2971344 6.62364197 C11.29886783 6.59288057 10.30060125 6.56211917 9.27208418 6.53042561 C8.35057697 6.4917737 7.42906977 6.45312179 6.4796381 6.41329861 C5.66176195 6.382016 4.8438858 6.3507334 4.00122553 6.31850284 C2 6 2 6 0 4 C0 2.68 0 1.36 0 0 Z " fill="#515151" transform="translate(134,440)"/>
<path d="M0 0 C1.39913818 -0.00128164 1.39913818 -0.00128164 2.82654178 -0.00258917 C5.97120286 -0.00424431 9.11581131 0.00127799 12.26046753 0.00672913 C14.50703938 0.00701102 16.75361131 0.00685323 19.00018311 0.00628662 C25.11558013 0.00599872 31.2309577 0.0118943 37.34635019 0.01886058 C43.73120431 0.0250953 50.11605883 0.02569801 56.50091553 0.02688599 C67.22285362 0.02964487 77.94478317 0.03589878 88.66671753 0.04481506 C99.71163904 0.0539904 110.7565586 0.06107064 121.80148315 0.06532288 C122.82224747 0.06571696 122.82224747 0.06571696 123.86363329 0.06611901 C127.27746025 0.06742402 130.69128723 0.06868773 134.10511422 0.06993091 C162.43799083 0.08030205 190.77085966 0.09799329 219.10372925 0.12025452 C219.10372925 1.11025452 219.10372925 2.10025452 219.10372925 3.12025452 C218.77372925 2.79025452 218.44372925 2.46025452 218.10372925 2.12025452 C215.2098603 2.0000836 212.33913709 1.94567966 209.4440155 1.93270874 C208.52451164 1.92479866 207.60500778 1.91688857 206.65764016 1.90873879 C203.55155128 1.88351475 200.44546537 1.86571002 197.33932495 1.84803772 C195.12233771 1.83196214 192.90535266 1.81558243 190.68836975 1.79891968 C170.43667077 1.65418534 150.18436088 1.57894909 129.93224812 1.52000141 C127.22158579 1.51197242 124.51092394 1.50380415 121.80026245 1.49549866 C121.12652288 1.49344105 120.4527833 1.49138345 119.75862738 1.4892635 C108.84694791 1.45485111 97.93585624 1.38220802 87.02448831 1.29459105 C75.82605863 1.2054127 64.62783634 1.15485538 53.42903775 1.13869923 C47.13946836 1.12851564 40.85104822 1.10108161 34.56182289 1.03238869 C28.64433912 0.96846947 22.72858766 0.95155601 16.81080818 0.97088432 C14.63790749 0.96972864 12.46493857 0.95140797 10.29234695 0.91474152 C-0.85646148 0.17764492 -0.85646148 0.17764492 -10.54242897 4.42380333 C-12.10932619 6.98743047 -13.14044439 9.22116688 -13.89627075 12.12025452 C-14.89627075 9.12025452 -14.89627075 9.12025452 -14.1892395 7.11244202 C-13.82443481 6.41377014 -13.45963013 5.71509827 -13.08377075 4.99525452 C-12.72670044 4.29142639 -12.36963013 3.58759827 -12.0017395 2.86244202 C-9.37728129 -1.27362994 -4.3559644 -0.01439701 0 0 Z " fill="#2F2F2F" transform="translate(144.89627075195313,54.87974548339844)"/>
<path d="M0 0 C1.12697548 0.01441132 1.12697548 0.01441132 2.27671814 0.02911377 C4.76579 0.06215546 7.25468917 0.10246799 9.74365234 0.14282227 C11.46714668 0.16711834 13.19064744 0.19096215 14.91415405 0.21437073 C19.45490838 0.27726273 23.99554915 0.34631485 28.53619385 0.41662598 C33.16779398 0.48726327 37.79947476 0.55210777 42.43115234 0.61743164 C51.5223868 0.7465099 60.61351185 0.88209241 69.70458984 1.02172852 C69.37458984 1.68172852 69.04458984 2.34172852 68.70458984 3.02172852 C42.96458984 3.02172852 17.22458984 3.02172852 -9.29541016 3.02172852 C-9.29541016 2.36172852 -9.29541016 1.70172852 -9.29541016 1.02172852 C-6.30688316 -0.47253498 -3.2720081 -0.0594255 0 0 Z " fill="#0F0F0F" transform="translate(130.29541015625,28.978271484375)"/>
<path d="M0 0 C2.47923801 -0.02685095 4.9581884 -0.04676547 7.4375 -0.0625 C8.14455078 -0.07087891 8.85160156 -0.07925781 9.58007812 -0.08789062 C11.38693559 -0.09653588 13.19387603 -0.05220011 15 0 C16.91328326 1.91328326 16.24095709 5.43128187 16.29711914 8.04248047 C16.31677231 8.77907898 16.33642548 9.51567749 16.35667419 10.27459717 C16.42080345 12.72203277 16.47800519 15.16957979 16.53515625 17.6171875 C16.57815508 19.31252068 16.62157159 21.00784332 16.66539001 22.70315552 C16.77984159 27.17684118 16.8883817 31.65065214 16.99578857 36.12451172 C17.10610808 40.67294553 17.22233987 45.22122791 17.33789062 49.76953125 C17.50559471 56.41252694 17.67159728 63.05556081 17.83227539 69.69873047 C17.84940582 70.39702972 17.86653625 71.09532898 17.88418579 71.81478882 C17.94957063 74.54421522 18 77.26964738 18 80 C16.515 80.99 16.515 80.99 15 82 C14.8671261 74.83500982 14.73662177 67.66998017 14.60884857 60.50489712 C14.54939976 57.17503657 14.48901304 53.84519966 14.42724609 50.51538086 C14.12161393 34.0081251 13.92673453 17.51017028 14 1 C9.38 1 4.76 1 0 1 C0 0.67 0 0.34 0 0 Z " fill="#595958" transform="translate(298,165)"/>
<path d="M0 0 C0 0.66 0 1.32 0 2 C-14.19 2 -28.38 2 -43 2 C-43.33 1.34 -43.66 0.68 -44 0 C-40.10809917 -0.14547716 -36.2160933 -0.28771642 -32.32397461 -0.42724609 C-30.3663144 -0.49805356 -28.40874137 -0.57125854 -26.45117188 -0.64453125 C-2.96255196 -1.48127598 -2.96255196 -1.48127598 0 0 Z " fill="#101010" transform="translate(379,30)"/>
<path d="M0 0 C0.86066574 0.00007553 1.72133148 0.00015106 2.608078 0.00022888 C3.53316666 0.00539017 4.45825531 0.01055145 5.41137695 0.01586914 C6.36156204 0.01728409 7.31174713 0.01869904 8.29072571 0.02015686 C11.3270685 0.02575664 14.36333768 0.03830907 17.3996582 0.05102539 C19.45759985 0.05604042 21.51554265 0.06060332 23.57348633 0.06469727 C28.61973867 0.07572599 33.66593595 0.09299046 38.7121582 0.11352539 C38.7121582 0.44352539 38.7121582 0.77352539 38.7121582 1.11352539 C17.4271582 2.10352539 17.4271582 2.10352539 -4.2878418 3.11352539 C-4.9478418 4.76352539 -5.6078418 6.41352539 -6.2878418 8.11352539 C-6.6178418 8.11352539 -6.9478418 8.11352539 -7.2878418 8.11352539 C-7.2878418 5.80352539 -7.2878418 3.49352539 -7.2878418 1.11352539 C-4.50722205 0.18665214 -2.86732321 -0.00840857 0 0 Z " fill="#4F4F4F" transform="translate(165.287841796875,257.886474609375)"/>
<path d="M0 0 C-0.66 1.65 -1.32 3.3 -2 5 C-2.99 5 -3.98 5 -5 5 C-6.71358643 6.61838719 -8.3707726 8.29671681 -10 10 C-11.17797367 11.01120437 -12.36588027 12.01093101 -13.5625 13 C-15.78638919 14.86690915 -17.41189862 16.51487328 -19.25 18.8125 C-21 21 -21 21 -24 22 C-22.56494611 17.29717279 -19.82061878 14.35553032 -16.375 11 C-15.83955566 10.47180664 -15.30411133 9.94361328 -14.75244141 9.39941406 C-5.01712535 0 -5.01712535 0 0 0 Z " fill="#4B4B4B" transform="translate(203,168)"/>
<path d="M0 0 C2.28363378 2.28363378 2.7152849 3.74795468 3.625 6.8125 C4.01558594 8.09060547 4.01558594 8.09060547 4.4140625 9.39453125 C5.0044509 12.01979166 5.10588413 14.31920637 5 17 C-0.34902924 17.59198743 -5.60884846 18.14187241 -11 18 C-14.07692308 12.58461538 -14.07692308 12.58461538 -13.6875 9.625 C-13.460625 9.08875 -13.23375 8.5525 -13 8 C-12.01 10.31 -11.02 12.62 -10 15 C-6.04 15 -2.08 15 2 15 C2.33 13.02 2.66 11.04 3 9 C2.34 9 1.68 9 1 9 C0.67 6.03 0.34 3.06 0 0 Z " fill="#595959" transform="translate(368,317)"/>
<path d="M0 0 C1.81757813 0.07250977 1.81757813 0.07250977 3.671875 0.14648438 C5.57839844 0.2305957 5.57839844 0.2305957 7.5234375 0.31640625 C9.4415625 0.3947168 9.4415625 0.3947168 11.3984375 0.47460938 C14.5653345 0.60459395 17.73194037 0.73957027 20.8984375 0.87890625 C17.52144962 2.9206416 14.95297527 3.11415664 11.0390625 3.07421875 C9.92402344 3.06777344 8.80898437 3.06132813 7.66015625 3.0546875 C6.50128906 3.03792969 5.34242188 3.02117188 4.1484375 3.00390625 C2.97410156 2.99488281 1.79976562 2.98585937 0.58984375 2.9765625 C-2.30749786 2.95300688 -5.20442691 2.92011277 -8.1015625 2.87890625 C-8.1015625 2.21890625 -8.1015625 1.55890625 -8.1015625 0.87890625 C-5.30455758 -0.51959621 -3.12040891 -0.13123215 0 0 Z " fill="#161616" transform="translate(129.1015625,29.12109375)"/>
<path d="M0 0 C1.32751785 0.00212242 1.32751785 0.00212242 2.68185425 0.00428772 C5.51449941 0.00989485 8.34706614 0.02244854 11.1796875 0.03515625 C13.09765511 0.04017033 15.01562396 0.0447334 16.93359375 0.04882812 C21.64065532 0.05986659 26.3476581 0.077136 31.0546875 0.09765625 C31.0546875 0.42765625 31.0546875 0.75765625 31.0546875 1.09765625 C29.90468262 1.07558105 28.75467773 1.05350586 27.56982422 1.03076172 C23.28658692 0.96181887 19.00536895 0.95892967 14.72167969 0.97558594 C12.87098824 0.97364397 11.02022469 0.9539907 9.16992188 0.91601562 C-1.40754435 0.23258079 -1.40754435 0.23258079 -10.52636719 4.39941406 C-12.05600508 6.94881056 -13.13018987 9.24505129 -13.9453125 12.09765625 C-14.9453125 9.09765625 -14.9453125 9.09765625 -14.23828125 7.08984375 C-13.87347656 6.39117187 -13.50867188 5.6925 -13.1328125 4.97265625 C-12.77574219 4.26882812 -12.41867188 3.565 -12.05078125 2.83984375 C-9.41556391 -1.31318429 -4.37016676 -0.02608713 0 0 Z " fill="#2B2B2B" transform="translate(144.9453125,54.90234375)"/>
<path d="M0 0 C0.40017334 0.485896 0.80034668 0.97179199 1.21264648 1.47241211 C3.47136252 3.40285689 4.65822238 3.39254734 7.59765625 3.44140625 C8.48130859 3.46783203 9.36496094 3.49425781 10.27539062 3.52148438 C11.19513672 3.53501953 12.11488281 3.54855469 13.0625 3.5625 C14.88690093 3.59687462 16.7111715 3.63944467 18.53515625 3.69140625 C19.74764038 3.70989624 19.74764038 3.70989624 20.98461914 3.72875977 C23 4 23 4 25 6 C21.20839703 6.05786668 17.41690689 6.09355054 13.625 6.125 C12.00464844 6.15013672 12.00464844 6.15013672 10.3515625 6.17578125 C9.3203125 6.18222656 8.2890625 6.18867188 7.2265625 6.1953125 C5.79691162 6.21102295 5.79691162 6.21102295 4.33837891 6.22705078 C2 6 2 6 0 4 C0 2.68 0 1.36 0 0 Z " fill="#1A1A1B" transform="translate(134,440)"/>
<path d="M0 0 C1.65 0 3.3 0 5 0 C7.6042876 7.8128628 1.86237221 18.61885745 -1 26 C-1.33 26 -1.66 26 -2 26 C-2 23.69 -2 21.38 -2 19 C-1.34 19 -0.68 19 0 19 C0.12375 17.7625 0.2475 16.525 0.375 15.25 C0.76248275 12.05467127 1.52109724 9.85921201 3 7 C3.41717279 4.41537838 3.41717279 4.41537838 3 2 C2.01 1.34 1.02 0.68 0 0 Z " fill="#696969" transform="translate(369,166)"/>
<path d="M0 0 C0.33 0 0.66 0 1 0 C1 3.96 1 7.92 1 12 C-1.64551056 12.19386492 -4.29117783 12.38038267 -6.9375 12.5625 C-7.69224609 12.61857422 -8.44699219 12.67464844 -9.22460938 12.73242188 C-11.14745958 12.86176157 -13.07389548 12.93516912 -15 13 C-16 12 -16 12 -16.09765625 9.71484375 C-16.08605469 8.79832031 -16.07445312 7.88179688 -16.0625 6.9375 C-16.05347656 6.01839844 -16.04445313 5.09929687 -16.03515625 4.15234375 C-16.02355469 3.44207031 -16.01195312 2.73179687 -16 2 C-13.70986347 5.4352048 -13.82157027 6.985331 -14 11 C-12.989375 10.814375 -11.97875 10.62875 -10.9375 10.4375 C-7.02085773 10.00231753 -3.85755337 10.29146979 0 11 C0 7.37 0 3.74 0 0 Z " fill="#5E5E5E" transform="translate(282,322)"/>
<path d="M0 0 C0.33 0 0.66 0 1 0 C1 1.65 1 3.3 1 5 C-5.22254783 6.17818227 -11.13418209 5.91929158 -17.4375 5.5625 C-18.45521484 5.51029297 -19.47292969 5.45808594 -20.52148438 5.40429688 C-23.01470369 5.27553907 -25.50742633 5.1406198 -28 5 C-28 4.67 -28 4.34 -28 4 C-27.18732666 3.9498877 -26.37465332 3.89977539 -25.53735352 3.84814453 C-21.87836527 3.61698433 -18.22050608 3.37119428 -14.5625 3.125 C-13.28310547 3.04636719 -12.00371094 2.96773437 -10.68554688 2.88671875 C-8.86313477 2.76103516 -8.86313477 2.76103516 -7.00390625 2.6328125 C-5.31503296 2.52283936 -5.31503296 2.52283936 -3.59204102 2.41064453 C-2.73666748 2.27513184 -1.88129395 2.13961914 -1 2 C-0.67 1.34 -0.34 0.68 0 0 Z " fill="#676767" transform="translate(253,239)"/>
<path d="M0 0 C1.14726562 0.00644531 2.29453125 0.01289063 3.4765625 0.01953125 C6.375 0.1875 6.375 0.1875 8.375 1.1875 C8.375 1.8475 8.375 2.5075 8.375 3.1875 C6.14590129 3.21464735 3.91670633 3.23396254 1.6875 3.25 C0.44613281 3.26160156 -0.79523438 3.27320313 -2.07421875 3.28515625 C-5.08735454 3.20228673 -7.70775339 2.89589449 -10.625 2.1875 C-7.06652785 -0.02997156 -4.13961655 -0.05139479 0 0 Z " fill="#666666" transform="translate(370.625,28.8125)"/>
<path d="M0 0 C3.3 0 6.6 0 10 0 C10 0.33 10 0.66 10 1 C7.36 1.33 4.72 1.66 2 2 C1.34 5.3 0.68 8.6 0 12 C-0.66 12 -1.32 12 -2 12 C-2 13.65 -2 15.3 -2 17 C-2.66 17 -3.32 17 -4 17 C-4.33 17.99 -4.66 18.98 -5 20 C-4.20099966 15.66857709 -3.08800666 11.43583732 -1.9375 7.1875 C-1.75123047 6.49462891 -1.56496094 5.80175781 -1.37304688 5.08789062 C-0.91678802 3.39154359 -0.45859046 1.6957182 0 0 Z " fill="#595959" transform="translate(357,166)"/>
<path d="M0 0 C2.81272787 2.81272787 2.36938496 4.88856673 2.5625 8.8125 C2.80737765 13.79306373 2.80737765 13.79306373 3.5546875 18.7109375 C4.1831623 21.94151848 3.56699577 24.78702398 3 28 C2.67 28 2.34 28 2 28 C1.65988375 24.83402429 1.32916813 21.6671312 1 18.5 C0.90460938 17.613125 0.80921875 16.72625 0.7109375 15.8125 C0.16485054 10.50765526 -0.0996753 5.33262848 0 0 Z " fill="#797979" transform="translate(263,296)"/>
<path d="M0 0 C0.33 1.32 0.66 2.64 1 4 C0.01 4.33 -0.98 4.66 -2 5 C-2.12375 5.7425 -2.2475 6.485 -2.375 7.25 C-2.95486701 9.80141485 -3.73708739 11.7267573 -5 14 C-5.66 14 -6.32 14 -7 14 C-7.33 15.65 -7.66 17.3 -8 19 C-8.66 19 -9.32 19 -10 19 C-8.62394084 14.23448987 -6.53221934 10.2751447 -3.875 6.125 C-3.50246094 5.53203125 -3.12992187 4.9390625 -2.74609375 4.328125 C-1.83635 2.8818657 -0.91896202 1.44041954 0 0 Z " fill="#666666" transform="translate(75,109)"/>
<path d="M0 0 C0.66 0.33 1.32 0.66 2 1 C-4.15034169 12.70615034 -4.15034169 12.70615034 -8 17 C-8.33 15.68 -8.66 14.36 -9 13 C-8.34 13 -7.68 13 -7 13 C-6.67 11.35 -6.34 9.7 -6 8 C-5.01 7.67 -4.02 7.34 -3 7 C-1.62665383 4.71108972 -0.84749184 2.54247553 0 0 Z " fill="#4D4D4D" transform="translate(410,412)"/>
<path d="M0 0 C0.99 0 1.98 0 3 0 C1.62712658 3.69876091 -0.06355453 6.9514476 -2.125 10.3125 C-2.66382813 11.19550781 -3.20265625 12.07851563 -3.7578125 12.98828125 C-4.37269531 13.98408203 -4.37269531 13.98408203 -5 15 C-6.53271273 10.41201223 -5.02911182 8.22055258 -3 4 C-2.01 4 -1.02 4 0 4 C0 2.68 0 1.36 0 0 Z " fill="#404040" transform="translate(450,342)"/>
<path d="M0 0 C9.24 0 18.48 0 28 0 C28 0.33 28 0.66 28 1 C15.625 1.495 15.625 1.495 3 2 C2.34 3.65 1.68 5.3 1 7 C0.67 7 0.34 7 0 7 C0 4.69 0 2.38 0 0 Z " fill="#858585" transform="translate(158,259)"/>
<path d="M0 0 C2.91121708 2.91121708 4.67418635 5.53275902 6.75 9.0625 C7.38421875 10.12597656 8.0184375 11.18945312 8.671875 12.28515625 C9.11015625 13.18105469 9.5484375 14.07695312 10 15 C9.67 15.66 9.34 16.32 9 17 C8.34 16.67 7.68 16.34 7 16 C6.375 12.9375 6.375 12.9375 6 10 C4.68 10 3.36 10 2 10 C1.34 6.7 0.68 3.4 0 0 Z " fill="#5F5F5F" transform="translate(480,205)"/>
<path d="M0 0 C2.97 0 5.94 0 9 0 C9.33 0.66 9.66 1.32 10 2 C9.01 2.061875 8.02 2.12375 7 2.1875 C2.28172009 2.82432306 -1.1745514 5.30728164 -5 8 C-4.6875 6.0625 -4.6875 6.0625 -4 4 C-3.01 3.67 -2.02 3.34 -1 3 C-0.67 2.01 -0.34 1.02 0 0 Z " fill="#535353" transform="translate(206,179)"/>
<path d="M0 0 C0.66 0 1.32 0 2 0 C0.53025751 5.73199571 -2.44486902 10.33583399 -6 15 C-6.33 15 -6.66 15 -7 15 C-7 13.35 -7 11.7 -7 10 C-5.68 9.34 -4.36 8.68 -3 8 C-3 7.01 -3 6.02 -3 5 C-2.34 5 -1.68 5 -1 5 C-0.67 3.35 -0.34 1.7 0 0 Z " fill="#5E5E5E" transform="translate(463,321)"/>
<path d="M0 0 C2.475 0.99 2.475 0.99 5 2 C5 2.99 5 3.98 5 5 C5.66 5.33 6.32 5.66 7 6 C7.6328125 8.06640625 7.6328125 8.06640625 8.125 10.5625 C8.29257812 11.38878906 8.46015625 12.21507812 8.6328125 13.06640625 C8.75398438 13.70449219 8.87515625 14.34257812 9 15 C6.36115438 12.59888822 4.63586471 9.99444972 2.8125 6.9375 C2.01779297 5.62072266 2.01779297 5.62072266 1.20703125 4.27734375 C0 2 0 2 0 0 Z " fill="#606060" transform="translate(22,299)"/>
<path d="M0 0 C0 3.93974955 -1.47789475 5.82936093 -3.5 9.1875 C-4.47453125 10.81751953 -4.47453125 10.81751953 -5.46875 12.48046875 C-6.22671875 13.72763672 -6.22671875 13.72763672 -7 15 C-8.09375 11.2421875 -8.09375 11.2421875 -7.25 9.0625 C-6.8375 8.381875 -6.425 7.70125 -6 7 C-5.525625 6.13375 -5.05125 5.2675 -4.5625 4.375 C-3 2 -3 2 0 0 Z " fill="#595959" transform="translate(44,213)"/>
<path d="M0 0 C0 3.67898367 -1.10720557 5.41928665 -2.875 8.625 C-3.40867187 9.60726562 -3.94234375 10.58953125 -4.4921875 11.6015625 C-6 14 -6 14 -8 15 C-8 13.35 -8 11.7 -8 10 C-7.34 10 -6.68 10 -6 10 C-6 9.34 -6 8.68 -6 8 C-5.34 8 -4.68 8 -4 8 C-3.8453125 6.576875 -3.8453125 6.576875 -3.6875 5.125 C-3 2 -3 2 0 0 Z " fill="#5A5A5A" transform="translate(361,203)"/>
<path d="M0 0 C0.66 0 1.32 0 2 0 C1.33694413 3.54734889 -0.13292124 6.18009165 -2 9.25 C-2.53625 10.14203125 -3.0725 11.0340625 -3.625 11.953125 C-4.07875 12.62859375 -4.5325 13.3040625 -5 14 C-5.33 14 -5.66 14 -6 14 C-6 12.35 -6 10.7 -6 9 C-5.34 9 -4.68 9 -4 9 C-4 8.01 -4 7.02 -4 6 C-3.34 6 -2.68 6 -2 6 C-1.855625 5.38125 -1.71125 4.7625 -1.5625 4.125 C-1 2 -1 2 0 0 Z " fill="#626261" transform="translate(67,171)"/>
<path d="M0 0 C1.41128754 4.59165383 0.11300128 7.77399745 -2 12 C-2.66 12 -3.32 12 -4 12 C-4 12.66 -4 13.32 -4 14 C-4.66 14 -5.32 14 -6 14 C-4.50829734 9.0276578 -2.39542583 4.58154261 0 0 Z " fill="#585858" transform="translate(159,220)"/>
<path d="M0 0 C0 3.93974955 -1.47789475 5.82936093 -3.5 9.1875 C-4.47453125 10.81751953 -4.47453125 10.81751953 -5.46875 12.48046875 C-6.22671875 13.72763672 -6.22671875 13.72763672 -7 15 C-8 12 -8 12 -7 9 C-6.34 9 -5.68 9 -5 9 C-4.87625 8.4225 -4.7525 7.845 -4.625 7.25 C-3.98583433 4.94900359 -3.20694364 3.05890385 -2 1 C-1.34 0.67 -0.68 0.34 0 0 Z " fill="#6F6F6F" transform="translate(473,306)"/>
<path d="M0 0 C2.4375 1.0625 2.4375 1.0625 5 3 C5.8125 6.6875 5.8125 6.6875 6 10 C6.66 10 7.32 10 8 10 C7.67 11.32 7.34 12.64 7 14 C5.82807953 12.04480616 4.6626071 10.0857461 3.5 8.125 C2.8503125 7.03445313 2.200625 5.94390625 1.53125 4.8203125 C0 2 0 2 0 0 Z " fill="#6D6D6D" transform="translate(104,439)"/>
<path d="M0 0 C1.29246898 3.72157734 0.79108594 6.77768243 0.1875 10.625 C0.01605469 11.77226562 -0.15539062 12.91953125 -0.33203125 14.1015625 C-1 17 -1 17 -3 19 C-2.37679879 12.56025419 -1.35991738 6.32427599 0 0 Z " fill="#5C5C5C" transform="translate(135,286)"/>
<path d="M0 0 C0.66 0 1.32 0 2 0 C1.01 5.28 0.02 10.56 -1 16 C-1.33 16 -1.66 16 -2 16 C-2.20413361 10.26157749 -2.27141454 5.39460953 0 0 Z " fill="#4C4C4C" transform="translate(145,302)"/>
<path d="M0 0 C0.64453125 1.765625 0.64453125 1.765625 1 4 C0.07421875 5.921875 0.07421875 5.921875 -1.3125 7.75 C-1.98732422 8.67039063 -1.98732422 8.67039063 -2.67578125 9.609375 C-3.11277344 10.06828125 -3.54976562 10.5271875 -4 11 C-4.66 11 -5.32 11 -6 11 C-4.54955729 6.89041233 -2.48889248 3.56741255 0 0 Z " fill="#545454" transform="translate(172,198)"/>
<path d="M0 0 C0 3.19610552 -0.54671542 4.41717626 -2 7.1875 C-2.37125 7.90292969 -2.7425 8.61835938 -3.125 9.35546875 C-3.41375 9.89816406 -3.7025 10.44085938 -4 11 C-4.33 11 -4.66 11 -5 11 C-5.36783439 4.50159236 -5.36783439 4.50159236 -3.625 2.125 C-2 1 -2 1 0 0 Z " fill="#4B4B4B" transform="translate(182,212)"/>
<path d="M0 0 C0.99 0.33 1.98 0.66 3 1 C2.4225 1.515625 1.845 2.03125 1.25 2.5625 C-1.46936119 5.50847463 -3.10156592 8.47433671 -5 12 C-6 9 -6 9 -5.29296875 6.9921875 C-4.92816406 6.29351562 -4.56335938 5.59484375 -4.1875 4.875 C-3.83042969 4.17117187 -3.47335938 3.46734375 -3.10546875 2.7421875 C-2 1 -2 1 0 0 Z " fill="#595959" transform="translate(136,55)"/>
<path d="M0 0 C0.99 0 1.98 0 3 0 C1.68139111 4.61513112 -0.21355437 8.09897612 -3 12 C-3.33 10.68 -3.66 9.36 -4 8 C-3.34 8 -2.68 8 -2 8 C-2 7.01 -2 6.02 -2 5 C-1.34 5 -0.68 5 0 5 C0 3.35 0 1.7 0 0 Z " fill="#6C6C6C" transform="translate(389,446)"/>
<path d="M0 0 C0.33 1.32 0.66 2.64 1 4 C0.34 4 -0.32 4 -1 4 C-0.67 4.99 -0.34 5.98 0 7 C-2.97 9.475 -2.97 9.475 -6 12 C-4.68139111 7.38486888 -2.78644563 3.90102388 0 0 Z " fill="#656565" transform="translate(58,138)"/>
<path d="M0 0 C0.91007813 0.00902344 1.82015625 0.01804687 2.7578125 0.02734375 C3.45648438 0.03894531 4.15515625 0.05054687 4.875 0.0625 C3.885 1.5475 3.885 1.5475 2.875 3.0625 C0.4921875 3.35546875 0.4921875 3.35546875 -2.25 3.25 C-3.16007812 3.22292969 -4.07015625 3.19585937 -5.0078125 3.16796875 C-5.70648438 3.13316406 -6.40515625 3.09835938 -7.125 3.0625 C-7.125 2.4025 -7.125 1.7425 -7.125 1.0625 C-4.60024538 -0.19987731 -2.81299534 -0.03606404 0 0 Z " fill="#808080" transform="translate(128.125,28.9375)"/>
<path d="M0 0 C2 0 2 0 4.625 2.125 C7 5 7 5 7.3125 8.3125 C7.209375 9.199375 7.10625 10.08625 7 11 C4.04250209 7.53258866 1.92151848 4.13126473 0 0 Z " fill="#5B5B5B" transform="translate(112,454)"/>
<path d="M0 0 C0.99 0 1.98 0 3 0 C1.74194623 4.50802601 0.09592835 7.4912812 -3 11 C-3 9.35 -3 7.7 -3 6 C-2.01 5.67 -1.02 5.34 0 5 C0 3.35 0 1.7 0 0 Z " fill="#535352" transform="translate(428,379)"/>
<path d="M0 0 C0.99 0.495 0.99 0.495 2 1 C2.309375 1.99 2.61875 2.98 2.9375 4 C3.288125 4.99 3.63875 5.98 4 7 C4.99 7.33 5.98 7.66 7 8 C7 8.66 7 9.32 7 10 C4.625 9.8125 4.625 9.8125 2 9 C0.13992075 5.72271751 0 3.8340246 0 0 Z " fill="#535353" transform="translate(354,325)"/>
<path d="M0 0 C0.33 0 0.66 0 1 0 C1.08159574 4.16138263 0.98248524 7.9472484 0 12 C-0.99 12.33 -1.98 12.66 -3 13 C-2.68817931 11.58318366 -2.37551263 10.16655349 -2.0625 8.75 C-1.88847656 7.96109375 -1.71445313 7.1721875 -1.53515625 6.359375 C-1.052444 4.23121297 -0.53836822 2.11467158 0 0 Z " fill="#737373" transform="translate(141,263)"/>
<path d="M0 0 C0.33 1.32 0.66 2.64 1 4 C-1.4375 6.75 -1.4375 6.75 -4 9 C-4.66 8.67 -5.32 8.34 -6 8 C-4.02 5.36 -2.04 2.72 0 0 Z " fill="#545454" transform="translate(327,228)"/>
<path d="M0 0 C1 2 1 2 0.875 4.4375 C0 7 0 7 -2.5625 8.8125 C-3.366875 9.204375 -4.17125 9.59625 -5 10 C-3.66511872 6.40608886 -2.03977277 3.24509304 0 0 Z " fill="#595959" transform="translate(96,73)"/>
<path d="M0 0 C0.99 0.33 1.98 0.66 3 1 C3 1.66 3 2.32 3 3 C3.66 3 4.32 3 5 3 C5.66 5.64 6.32 8.28 7 11 C4.59424393 8.81482901 3.20464419 6.74080329 1.8125 3.8125 C1.46832031 3.09707031 1.12414062 2.38164062 0.76953125 1.64453125 C0.51558594 1.10183594 0.26164062 0.55914062 0 0 Z " fill="#6F6F6F" transform="translate(429,169)"/>
<path d="M0 0 C0.66 0 1.32 0 2 0 C0.66511872 3.59391114 -0.96022723 6.75490696 -3 10 C-3.33 9.34 -3.66 8.68 -4 8 C-1.48571429 1.48571429 -1.48571429 1.48571429 0 0 Z " fill="#747472" transform="translate(107,103)"/>
<path d="M0 0 C0.625 1.8125 0.625 1.8125 1 4 C0.01 5.485 0.01 5.485 -1 7 C-1.66 7 -2.32 7 -3 7 C-3 7.99 -3 8.98 -3 10 C-3.66 10 -4.32 10 -5 10 C-3.66511872 6.40608886 -2.03977277 3.24509304 0 0 Z " fill="#555555" transform="translate(109,51)"/>
<path d="M0 0 C0.99 0 1.98 0 3 0 C1.6302836 3.99500618 -0.25722422 6.80009492 -3 10 C-3 8.68 -3 7.36 -3 6 C-2.34 6 -1.68 6 -1 6 C-0.67 4.02 -0.34 2.04 0 0 Z " fill="#626262" transform="translate(395,436)"/>
<path d="M0 0 C2.46800047 1.15173355 4.04783565 2.04783565 6 4 C6.125 6.625 6.125 6.625 6 9 C3.59927045 6.11912454 1.52708963 3.43595166 0 0 Z " fill="#505050" transform="translate(342,303)"/>
<path d="M0 0 C3 1 3 1 4.75 4.4375 C5.36875 6.2009375 5.36875 6.2009375 6 8 C5.67 8.66 5.34 9.32 5 10 C4.1641146 8.52227402 3.33135744 7.04277811 2.5 5.5625 C2.0359375 4.73878906 1.571875 3.91507812 1.09375 3.06640625 C0 1 0 1 0 0 Z " fill="#737373" transform="translate(12,282)"/>
<path d="M0 0 C0.99 0.33 1.98 0.66 3 1 C2.34 1.66 1.68 2.32 1 3 C1.99 3.99 2.98 4.98 4 6 C1.0625 5.625 1.0625 5.625 -2 5 C-2.33 4.34 -2.66 3.68 -3 3 C-2.01 2.01 -1.02 1.02 0 0 Z " fill="#535353" transform="translate(318,261)"/>
<path d="M0 0 C0.66 0.33 1.32 0.66 2 1 C0.35 4.3 -1.3 7.6 -3 11 C-3.33 11 -3.66 11 -4 11 C-4.20086443 7.28400809 -4.1519437 6.22791555 -2 3 C-1.34 3 -0.68 3 0 3 C0 2.01 0 1.02 0 0 Z " fill="#5D5D5D" transform="translate(27,240)"/>
<path d="M0 0 C0.33 0 0.66 0 1 0 C1 1.65 1 3.3 1 5 C0.01 5.33 -0.98 5.66 -2 6 C-2.73323796 8.01508358 -2.73323796 8.01508358 -3 10 C-3.66 10 -4.32 10 -5 10 C-3.66654496 6.40992874 -2.1056769 3.20429093 0 0 Z " fill="#727272" transform="translate(14,213)"/>
<path d="M0 0 C0 3.62453269 -0.92469613 5.07920195 -3 8 C-3.99 8.33 -4.98 8.66 -6 9 C-4.68775452 5.06326356 -3.08089673 2.77280706 0 0 Z " fill="#6A6A6A" transform="translate(185,181)"/>
<path d="M0 0 C2.79872437 2.52788007 4.45773019 4.20411134 5 8 C4.34 7.67 3.68 7.34 3 7 C3 6.34 3 5.68 3 5 C1.7934375 4.566875 1.7934375 4.566875 0.5625 4.125 C-2 3 -2 3 -3 1 C-2.01 0.67 -1.02 0.34 0 0 Z " fill="#585858" transform="translate(219,180)"/>
<path d="M0 0 C0.6875 1.6875 0.6875 1.6875 1 4 C-0.3125 6.75 -0.3125 6.75 -2 9 C-2.66 9 -3.32 9 -4 9 C-2.94124926 5.59687262 -1.99097846 2.98646769 0 0 Z " fill="#666666" transform="translate(380,414)"/>
<path d="M0 0 C0.33 0.99 0.66 1.98 1 3 C1.66 3.33 2.32 3.66 3 4 C1.35 5.32 -0.3 6.64 -2 8 C-2.66 7.67 -3.32 7.34 -4 7 C-2.68 4.69 -1.36 2.38 0 0 Z " fill="#4F4F4F" transform="translate(424,339)"/>
<path d="M0 0 C4.875 4.625 4.875 4.625 6 8 C5.34 8 4.68 8 4 8 C4 7.34 4 6.68 4 6 C3.01 6 2.02 6 1 6 C0.67 4.02 0.34 2.04 0 0 Z " fill="#5E5E5E" transform="translate(352,291)"/>
<path d="M0 0 C0.99 0 1.98 0 3 0 C2.67 1.32 2.34 2.64 2 4 C1.34 4 0.68 4 0 4 C-0.12375 4.61875 -0.2475 5.2375 -0.375 5.875 C-1 8 -1 8 -3 10 C-2.21302675 6.58978257 -1.12880057 3.31114834 0 0 Z " fill="#717171" transform="translate(116,86)"/>
<path d="M0 0 C0.33 0.66 0.66 1.32 1 2 C0.22265625 3.7265625 0.22265625 3.7265625 -0.9375 5.625 C-1.618125 6.73875 -2.29875 7.8525 -3 9 C-4 6 -4 6 -3.1875 3.375 C-2 1 -2 1 0 0 Z " fill="#626262" transform="translate(416,403)"/>
<path d="M0 0 C0.6875 1.6875 0.6875 1.6875 1 4 C-0.3125 6.75 -0.3125 6.75 -2 9 C-2.66 9 -3.32 9 -4 9 C-2.94124926 5.59687262 -1.99097846 2.98646769 0 0 Z " fill="#575757" transform="translate(392,394)"/>
<path d="M0 0 C0.66 0 1.32 0 2 0 C0.7508258 3.45925163 -0.67527795 6.14693203 -3 9 C-3 7.35 -3 5.7 -3 4 C-2.34 4 -1.68 4 -1 4 C-0.67 2.68 -0.34 1.36 0 0 Z " fill="#5D5D5D" transform="translate(442,357)"/>
<path d="M0 0 C0.99 0 1.98 0 3 0 C1.8141763 3.37503669 0.72426311 5.64722731 -2 8 C-2.33 6.68 -2.66 5.36 -3 4 C-2.01 4 -1.02 4 0 4 C0 2.68 0 1.36 0 0 Z " fill="#5F5F5F" transform="translate(450,342)"/>
<path d="M0 0 C0.66 0 1.32 0 2 0 C2.33 0.99 2.66 1.98 3 3 C1.35 4.32 -0.3 5.64 -2 7 C-1.125 1.125 -1.125 1.125 0 0 Z " fill="#373737" transform="translate(433,324)"/>
<path d="M0 0 C3.48331435 3.01887244 4.79157144 5.56909529 6 10 C1.77202073 6.91709845 1.77202073 6.91709845 0 5 C-0.375 2.1875 -0.375 2.1875 0 0 Z " fill="#626262" transform="translate(459,169)"/>
<path d="M0 0 C0.99 0.33 1.98 0.66 3 1 C3 1.99 3 2.98 3 4 C3.99 4.33 4.98 4.66 6 5 C6 6.65 6 8.3 6 10 C3.25722422 6.80009492 1.3697164 3.99500618 0 0 Z " fill="#686868" transform="translate(386,95)"/>
<path d="M0 0 C1.9375 0.625 1.9375 0.625 4 2 C4.75 5.125 4.75 5.125 5 8 C2.20127563 5.47211993 0.54226981 3.79588866 0 0 Z " fill="#717171" transform="translate(99,431)"/>
<path d="M0 0 C1.125 3.75 1.125 3.75 0 6 C-0.66 6 -1.32 6 -2 6 C-2 6.99 -2 7.98 -2 9 C-2.66 9 -3.32 9 -4 9 C-2.94124926 5.59687262 -1.99097846 2.98646769 0 0 Z " fill="#696969" transform="translate(442,308)"/>
<path d="M0 0 C0.66 0 1.32 0 2 0 C2 2.31 2 4.62 2 7 C1.01 7.495 1.01 7.495 0 8 C-0.79953138 4.71303767 -1.09658936 3.28976808 0 0 Z " fill="#3B3B3B" transform="translate(276,279)"/>
<path d="M0 0 C2.32472205 2.85306797 3.7508258 5.54074837 5 9 C3.0625 8.4375 3.0625 8.4375 1 7 C0.25 3.375 0.25 3.375 0 0 Z " fill="#626262" transform="translate(400,67)"/>
</svg>
